<svg xmlns="http://www.w3.org/2000/svg" xmlns:xlink="http://www.w3.org/1999/xlink" width="372" zoomAndPan="magnify" viewBox="0 0 279 41.25" height="55" preserveAspectRatio="xMidYMid meet" version="1.0"><defs><g/><clipPath id="cd7c2c6a59"><path d="M 2.492188 0 L 276.507812 0 L 276.507812 40.511719 L 2.492188 40.511719 Z M 2.492188 0 " clip-rule="nonzero"/></clipPath><clipPath id="a64160bb7a"><path d="M 2.492188 0 L 275.773438 0 L 275.773438 39.777344 L 2.492188 39.777344 Z M 2.492188 0 " clip-rule="nonzero"/></clipPath><clipPath id="ee47d847fd"><path d="M 2.492188 13.257812 L 2.492188 26.84375 C 2.492188 34.164062 8.425781 40.101562 15.75 40.101562 L 262.519531 40.101562 C 269.84375 40.101562 275.78125 34.164062 275.78125 26.84375 L 275.78125 13.257812 C 275.78125 5.9375 269.84375 0 262.519531 0 L 15.75 0 C 8.425781 0 2.492188 5.9375 2.492188 13.257812 Z M 2.492188 13.257812 " clip-rule="nonzero"/></clipPath><clipPath id="5687e3f3d5"><path d="M 57 13 L 180 13 L 180 27 L 57 27 Z M 57 13 " clip-rule="nonzero"/></clipPath><clipPath id="ba5c692faf"><path d="M 2.492188 13.257812 L 2.492188 26.84375 C 2.492188 34.164062 8.425781 40.101562 15.75 40.101562 L 262.519531 40.101562 C 269.84375 40.101562 275.78125 34.164062 275.78125 26.84375 L 275.78125 13.257812 C 275.78125 5.9375 269.84375 0 262.519531 0 L 15.75 0 C 8.425781 0 2.492188 5.9375 2.492188 13.257812 Z M 2.492188 13.257812 " clip-rule="nonzero"/></clipPath><clipPath id="8e8fbab3d8"><path d="M 15 11 L 33 11 L 33 27 L 15 27 Z M 15 11 " clip-rule="nonzero"/></clipPath><clipPath id="ff8cdc8381"><path d="M 2.492188 13.257812 L 2.492188 26.84375 C 2.492188 34.164062 8.425781 40.101562 15.75 40.101562 L 262.519531 40.101562 C 269.84375 40.101562 275.78125 34.164062 275.78125 26.84375 L 275.78125 13.257812 C 275.78125 5.9375 269.84375 0 262.519531 0 L 15.75 0 C 8.425781 0 2.492188 5.9375 2.492188 13.257812 Z M 2.492188 13.257812 " clip-rule="nonzero"/></clipPath><clipPath id="a333c0c7d3"><path d="M 41 0 L 43 0 L 43 39.777344 L 41 39.777344 Z M 41 0 " clip-rule="nonzero"/></clipPath><clipPath id="236282a6b4"><path d="M 2.492188 13.257812 L 2.492188 26.84375 C 2.492188 34.164062 8.425781 40.101562 15.75 40.101562 L 262.519531 40.101562 C 269.84375 40.101562 275.78125 34.164062 275.78125 26.84375 L 275.78125 13.257812 C 275.78125 5.9375 269.84375 0 262.519531 0 L 15.75 0 C 8.425781 0 2.492188 5.9375 2.492188 13.257812 Z M 2.492188 13.257812 " clip-rule="nonzero"/></clipPath><clipPath id="5bdd5fd649"><path d="M 134.027344 2.863281 L 263.429688 2.863281 L 263.429688 34.292969 L 134.027344 34.292969 Z M 134.027344 2.863281 " clip-rule="nonzero"/></clipPath></defs><g clip-path="url(#cd7c2c6a59)"><path fill="#ffffff" d="M 2.492188 0 L 276.507812 0 L 276.507812 40.511719 L 2.492188 40.511719 Z M 2.492188 0 " fill-opacity="1" fill-rule="nonzero"/></g><g clip-path="url(#a64160bb7a)"><g clip-path="url(#ee47d847fd)"><path fill="#000000" d="M 9.765625 0.0351562 L 313.433594 0.0351562 C 313.910156 0.0351562 314.382812 0.0820312 314.851562 0.175781 C 315.320312 0.269531 315.773438 0.40625 316.214844 0.585938 C 316.65625 0.769531 317.074219 0.992188 317.472656 1.253906 C 317.871094 1.515625 318.238281 1.816406 318.574219 2.152344 C 318.914062 2.488281 319.214844 2.851562 319.480469 3.246094 C 319.746094 3.640625 319.96875 4.054688 320.152344 4.492188 C 320.335938 4.929688 320.472656 5.382812 320.566406 5.847656 C 320.660156 6.3125 320.707031 6.78125 320.707031 7.253906 L 320.707031 32.519531 C 320.707031 32.996094 320.660156 33.464844 320.566406 33.929688 C 320.472656 34.394531 320.335938 34.84375 320.152344 35.285156 C 319.96875 35.722656 319.746094 36.136719 319.480469 36.53125 C 319.214844 36.925781 318.914062 37.289062 318.574219 37.625 C 318.238281 37.960938 317.871094 38.261719 317.472656 38.523438 C 317.074219 38.785156 316.65625 39.007812 316.214844 39.191406 C 315.773438 39.371094 315.320312 39.507812 314.851562 39.601562 C 314.382812 39.695312 313.910156 39.738281 313.433594 39.738281 L 9.765625 39.738281 C 9.285156 39.738281 8.8125 39.695312 8.34375 39.601562 C 7.878906 39.507812 7.421875 39.371094 6.980469 39.191406 C 6.539062 39.007812 6.121094 38.785156 5.722656 38.523438 C 5.328125 38.261719 4.960938 37.960938 4.621094 37.625 C 4.285156 37.289062 3.980469 36.925781 3.71875 36.53125 C 3.453125 36.136719 3.226562 35.722656 3.042969 35.285156 C 2.863281 34.84375 2.722656 34.394531 2.628906 33.929688 C 2.539062 33.464844 2.492188 32.996094 2.492188 32.519531 L 2.492188 7.253906 C 2.492188 6.78125 2.539062 6.3125 2.628906 5.847656 C 2.722656 5.382812 2.863281 4.929688 3.042969 4.492188 C 3.226562 4.054688 3.453125 3.640625 3.71875 3.246094 C 3.980469 2.851562 4.285156 2.488281 4.621094 2.152344 C 4.960938 1.816406 5.328125 1.515625 5.722656 1.253906 C 6.121094 0.992188 6.539062 0.769531 6.980469 0.585938 C 7.421875 0.40625 7.878906 0.269531 8.34375 0.175781 C 8.8125 0.0820312 9.285156 0.0351562 9.765625 0.0351562 Z M 9.765625 0.0351562 " fill-opacity="1" fill-rule="nonzero"/></g></g><g clip-path="url(#5687e3f3d5)"><g clip-path="url(#ba5c692faf)"><path fill="#ffffff" d="M 57.441406 13.777344 L 57.441406 23.949219 L 58.71875 23.949219 L 58.71875 20.320312 L 61.296875 20.320312 C 63.222656 20.320312 64.59375 18.972656 64.59375 17.070312 C 64.59375 15.128906 63.25 13.777344 61.3125 13.777344 Z M 58.71875 14.90625 L 60.976562 14.90625 C 62.460938 14.90625 63.277344 15.671875 63.277344 17.070312 C 63.277344 18.414062 62.433594 19.191406 60.976562 19.191406 L 58.71875 19.191406 Z M 69.175781 24.082031 C 71.355469 24.082031 72.703125 22.589844 72.703125 20.148438 C 72.703125 17.703125 71.355469 16.214844 69.175781 16.214844 C 66.992188 16.214844 65.644531 17.703125 65.644531 20.148438 C 65.644531 22.589844 66.992188 24.082031 69.175781 24.082031 Z M 69.175781 22.988281 C 67.726562 22.988281 66.910156 21.945312 66.910156 20.148438 C 66.910156 18.34375 67.726562 17.308594 69.175781 17.308594 C 70.625 17.308594 71.441406 18.34375 71.441406 20.148438 C 71.441406 21.945312 70.625 22.988281 69.175781 22.988281 Z M 83.679688 16.347656 L 82.449219 16.347656 L 80.945312 22.425781 L 80.832031 22.425781 L 79.117188 16.347656 L 77.945312 16.347656 L 76.234375 22.425781 L 76.121094 22.425781 L 74.617188 16.347656 L 73.378906 16.347656 L 75.523438 23.949219 L 76.761719 23.949219 L 78.464844 18.070312 L 78.578125 18.070312 L 80.289062 23.949219 L 81.535156 23.949219 Z M 87.792969 17.289062 C 89.007812 17.289062 89.816406 18.175781 89.84375 19.523438 L 85.625 19.523438 C 85.71875 18.175781 86.570312 17.289062 87.792969 17.289062 Z M 89.808594 21.980469 C 89.488281 22.652344 88.820312 23.011719 87.835938 23.011719 C 86.535156 23.011719 85.6875 22.058594 85.625 20.558594 L 85.625 20.5 L 91.128906 20.5 L 91.128906 20.035156 C 91.128906 17.675781 89.871094 16.214844 87.804688 16.214844 C 85.703125 16.214844 84.355469 17.765625 84.355469 20.15625 C 84.355469 22.558594 85.683594 24.082031 87.804688 24.082031 C 89.480469 24.082031 90.675781 23.277344 91.03125 21.980469 Z M 92.757812 23.949219 L 93.980469 23.949219 L 93.980469 19.238281 C 93.980469 18.167969 94.824219 17.394531 95.988281 17.394531 C 96.230469 17.394531 96.671875 17.433594 96.769531 17.464844 L 96.769531 16.25 C 96.613281 16.230469 96.359375 16.214844 96.160156 16.214844 C 95.144531 16.214844 94.261719 16.738281 94.035156 17.476562 L 93.921875 17.476562 L 93.921875 16.347656 L 92.757812 16.347656 Z M 100.847656 17.289062 C 102.0625 17.289062 102.871094 18.175781 102.902344 19.523438 L 98.679688 19.523438 C 98.773438 18.175781 99.625 17.289062 100.847656 17.289062 Z M 102.863281 21.980469 C 102.542969 22.652344 101.878906 23.011719 100.890625 23.011719 C 99.589844 23.011719 98.746094 22.058594 98.679688 20.558594 L 98.679688 20.5 L 104.1875 20.5 L 104.1875 20.035156 C 104.1875 17.675781 102.929688 16.214844 100.863281 16.214844 C 98.757812 16.214844 97.410156 17.765625 97.410156 20.15625 C 97.410156 22.558594 98.738281 24.082031 100.863281 24.082031 C 102.539062 24.082031 103.730469 23.277344 104.085938 21.980469 Z M 108.648438 24.082031 C 109.707031 24.082031 110.613281 23.582031 111.097656 22.738281 L 111.210938 22.738281 L 111.210938 23.949219 L 112.375 23.949219 L 112.375 13.332031 L 111.15625 13.332031 L 111.15625 17.546875 L 111.046875 17.546875 C 110.613281 16.714844 109.714844 16.214844 108.648438 16.214844 C 106.699219 16.214844 105.429688 17.765625 105.429688 20.148438 C 105.429688 22.539062 106.6875 24.082031 108.648438 24.082031 Z M 108.929688 17.308594 C 110.316406 17.308594 111.183594 18.40625 111.183594 20.148438 C 111.183594 21.90625 110.324219 22.988281 108.929688 22.988281 C 107.53125 22.988281 106.695312 21.925781 106.695312 20.148438 C 106.695312 18.378906 107.539062 17.308594 108.929688 17.308594 Z M 122.078125 24.082031 C 124.019531 24.082031 125.289062 22.523438 125.289062 20.148438 C 125.289062 17.757812 124.023438 16.214844 122.078125 16.214844 C 121.027344 16.214844 120.097656 16.730469 119.679688 17.546875 L 119.566406 17.546875 L 119.566406 13.332031 L 118.34375 13.332031 L 118.34375 23.949219 L 119.507812 23.949219 L 119.507812 22.738281 L 119.621094 22.738281 C 120.105469 23.582031 121.015625 24.082031 122.078125 24.082031 Z M 121.796875 17.308594 C 123.195312 17.308594 124.023438 18.371094 124.023438 20.148438 C 124.023438 21.925781 123.195312 22.988281 121.796875 22.988281 C 120.402344 22.988281 119.535156 21.90625 119.535156 20.148438 C 119.535156 18.394531 120.402344 17.308594 121.796875 17.308594 Z M 127.285156 26.699219 C 128.644531 26.699219 129.253906 26.175781 129.90625 24.414062 L 132.898438 16.347656 L 131.597656 16.347656 L 129.503906 22.601562 L 129.386719 22.601562 L 127.285156 16.347656 L 125.964844 16.347656 L 128.800781 23.957031 L 128.65625 24.40625 C 128.335938 25.324219 127.953125 25.65625 127.25 25.65625 C 127.082031 25.65625 126.886719 25.648438 126.738281 25.621094 L 126.738281 26.65625 C 126.910156 26.683594 127.121094 26.699219 127.285156 26.699219 Z M 143.097656 23.949219 L 146.640625 13.777344 L 144.6875 13.777344 L 142.132812 21.828125 L 142.011719 21.828125 L 139.433594 13.777344 L 137.410156 13.777344 L 140.988281 23.949219 Z M 150.386719 17.46875 C 151.445312 17.46875 152.140625 18.203125 152.175781 19.34375 L 148.519531 19.34375 C 148.597656 18.21875 149.335938 17.46875 150.386719 17.46875 Z M 152.191406 21.828125 C 151.933594 22.398438 151.332031 22.714844 150.457031 22.714844 C 149.300781 22.714844 148.554688 21.910156 148.511719 20.628906 L 148.511719 20.535156 L 153.9375 20.535156 L 153.9375 19.972656 C 153.9375 17.539062 152.609375 16.082031 150.394531 16.082031 C 148.140625 16.082031 146.742188 17.640625 146.742188 20.121094 C 146.742188 22.601562 148.121094 24.105469 150.40625 24.105469 C 152.238281 24.105469 153.539062 23.230469 153.859375 21.828125 Z M 155.414062 23.949219 L 157.175781 23.949219 L 157.175781 19.492188 C 157.175781 18.414062 157.972656 17.710938 159.117188 17.710938 C 159.414062 17.710938 159.882812 17.757812 160.019531 17.808594 L 160.019531 16.1875 C 159.855469 16.136719 159.542969 16.109375 159.285156 16.109375 C 158.285156 16.109375 157.445312 16.675781 157.234375 17.433594 L 157.113281 17.433594 L 157.113281 16.238281 L 155.414062 16.238281 Z M 167.691406 18.832031 C 167.503906 17.210938 166.296875 16.082031 164.300781 16.082031 C 161.964844 16.082031 160.59375 17.570312 160.59375 20.070312 C 160.59375 22.609375 161.972656 24.105469 164.308594 24.105469 C 166.277344 24.105469 167.496094 23.019531 167.691406 21.402344 L 166.011719 21.402344 C 165.828125 22.207031 165.21875 22.636719 164.300781 22.636719 C 163.101562 22.636719 162.375 21.691406 162.375 20.070312 C 162.375 18.472656 163.09375 17.546875 164.300781 17.546875 C 165.269531 17.546875 165.847656 18.082031 166.011719 18.832031 Z M 172.34375 17.46875 C 173.398438 17.46875 174.097656 18.203125 174.132812 19.34375 L 170.472656 19.34375 C 170.550781 18.21875 171.292969 17.46875 172.34375 17.46875 Z M 174.148438 21.828125 C 173.890625 22.398438 173.285156 22.714844 172.414062 22.714844 C 171.253906 22.714844 170.511719 21.910156 170.46875 20.628906 L 170.46875 20.535156 L 175.894531 20.535156 L 175.894531 19.972656 C 175.894531 17.539062 174.566406 16.082031 172.347656 16.082031 C 170.097656 16.082031 168.699219 17.640625 168.699219 20.121094 C 168.699219 22.601562 170.078125 24.105469 172.363281 24.105469 C 174.195312 24.105469 175.496094 23.230469 175.816406 21.828125 Z M 177.441406 23.949219 L 179.203125 23.949219 L 179.203125 13.253906 L 177.441406 13.253906 Z M 177.441406 23.949219 " fill-opacity="1" fill-rule="nonzero"/></g></g><g clip-path="url(#8e8fbab3d8)"><g clip-path="url(#ff8cdc8381)"><path fill="#ffffff" d="M 23.699219 11.765625 L 32.175781 26.203125 L 15.21875 26.203125 Z M 23.699219 11.765625 " fill-opacity="1" fill-rule="nonzero"/></g></g><g clip-path="url(#a333c0c7d3)"><g clip-path="url(#236282a6b4)"><path stroke-linecap="butt" transform="matrix(0.909184, 0, 0, 0.902333, 2.491073, 0.0370573)" fill="none" stroke-linejoin="miter" d="M 43.498352 -0.00210677 L 43.498352 43.998394 " stroke="#5e5e5e" stroke-width="1" stroke-opacity="1" stroke-miterlimit="4"/></g></g><g clip-path="url(#5bdd5fd649)"><path fill="#000000" d="M 134.027344 2.863281 L 263.429688 2.863281 L 263.429688 34.292969 L 134.027344 34.292969 Z M 134.027344 2.863281 " fill-opacity="1" fill-rule="nonzero"/></g><g fill="#ffffff" fill-opacity="1"><g transform="translate(137.423942, 24.224444)"><g><path d="M 3.5 0 L 1.453125 0 L 1.453125 -11.21875 L 4.359375 -11.21875 L 7.203125 -2.96875 L 7.359375 -2.96875 L 10.1875 -11.21875 L 13.015625 -11.21875 L 13.015625 0 L 10.921875 0 L 10.921875 -7.421875 L 10.71875 -7.4375 L 8.125 0 L 6.28125 0 L 3.6875 -7.4375 L 3.5 -7.421875 Z M 3.5 0 "/></g></g></g><g fill="#ffffff" fill-opacity="1"><g transform="translate(151.899347, 24.224444)"><g><path d="M 8.359375 -3.75 L 2.921875 -3.75 C 2.984375 -3.007812 3.191406 -2.472656 3.546875 -2.140625 C 3.910156 -1.804688 4.398438 -1.640625 5.015625 -1.640625 C 5.503906 -1.640625 5.898438 -1.726562 6.203125 -1.90625 C 6.503906 -2.09375 6.75 -2.367188 6.9375 -2.734375 L 7.09375 -2.734375 L 8.5 -1.828125 C 8.226562 -1.234375 7.8125 -0.753906 7.25 -0.390625 C 6.695312 -0.0234375 5.953125 0.15625 5.015625 0.15625 C 4.140625 0.15625 3.382812 -0.0078125 2.75 -0.34375 C 2.113281 -0.675781 1.625 -1.171875 1.28125 -1.828125 C 0.9375 -2.484375 0.765625 -3.285156 0.765625 -4.234375 C 0.765625 -5.191406 0.941406 -6 1.296875 -6.65625 C 1.660156 -7.320312 2.148438 -7.816406 2.765625 -8.140625 C 3.390625 -8.460938 4.085938 -8.625 4.859375 -8.625 C 6.054688 -8.625 6.972656 -8.304688 7.609375 -7.671875 C 8.253906 -7.035156 8.578125 -6.101562 8.578125 -4.875 C 8.578125 -4.4375 8.5625 -4.09375 8.53125 -3.84375 Z M 6.546875 -5.125 C 6.523438 -5.769531 6.375 -6.238281 6.09375 -6.53125 C 5.8125 -6.832031 5.398438 -6.984375 4.859375 -6.984375 C 3.785156 -6.984375 3.15625 -6.363281 2.96875 -5.125 Z M 6.546875 -5.125 "/></g></g></g><g fill="#ffffff" fill-opacity="1"><g transform="translate(161.097022, 24.224444)"><g><path d="M 1.21875 0 L 1.21875 -8.46875 L 3.28125 -8.46875 L 3.28125 -7.203125 L 3.453125 -7.171875 C 3.648438 -7.640625 3.914062 -7.984375 4.25 -8.203125 C 4.582031 -8.429688 4.988281 -8.546875 5.46875 -8.546875 C 5.945312 -8.546875 6.3125 -8.460938 6.5625 -8.296875 L 6.203125 -6.46875 L 6.046875 -6.4375 C 5.898438 -6.488281 5.765625 -6.523438 5.640625 -6.546875 C 5.515625 -6.578125 5.359375 -6.59375 5.171875 -6.59375 C 4.578125 -6.59375 4.125 -6.382812 3.8125 -5.96875 C 3.5 -5.550781 3.34375 -4.878906 3.34375 -3.953125 L 3.34375 0 Z M 1.21875 0 "/></g></g></g><g fill="#ffffff" fill-opacity="1"><g transform="translate(167.732544, 24.224444)"><g><path d="M 4.9375 0.15625 C 4.113281 0.15625 3.382812 -0.0078125 2.75 -0.34375 C 2.125 -0.6875 1.632812 -1.1875 1.28125 -1.84375 C 0.9375 -2.507812 0.765625 -3.304688 0.765625 -4.234375 C 0.765625 -5.160156 0.9375 -5.953125 1.28125 -6.609375 C 1.632812 -7.273438 2.125 -7.773438 2.75 -8.109375 C 3.375 -8.453125 4.085938 -8.625 4.890625 -8.625 C 6.679688 -8.625 7.828125 -7.976562 8.328125 -6.6875 L 6.875 -5.640625 L 6.703125 -5.640625 C 6.535156 -6.035156 6.3125 -6.332031 6.03125 -6.53125 C 5.75 -6.726562 5.367188 -6.828125 4.890625 -6.828125 C 4.273438 -6.828125 3.796875 -6.613281 3.453125 -6.1875 C 3.117188 -5.757812 2.953125 -5.109375 2.953125 -4.234375 C 2.953125 -3.359375 3.125 -2.707031 3.46875 -2.28125 C 3.8125 -1.851562 4.300781 -1.640625 4.9375 -1.640625 C 5.394531 -1.640625 5.78125 -1.765625 6.09375 -2.015625 C 6.414062 -2.265625 6.648438 -2.617188 6.796875 -3.078125 L 6.953125 -3.09375 L 8.46875 -2.265625 C 8.25 -1.554688 7.847656 -0.972656 7.265625 -0.515625 C 6.691406 -0.0664062 5.914062 0.15625 4.9375 0.15625 Z M 4.9375 0.15625 "/></g></g></g><g fill="#ffffff" fill-opacity="1"><g transform="translate(176.45461, 24.224444)"><g><path d="M 1.21875 0 L 1.21875 -11.859375 L 3.34375 -11.859375 L 3.34375 -7.359375 L 3.5 -7.328125 C 3.789062 -7.742188 4.140625 -8.0625 4.546875 -8.28125 C 4.953125 -8.507812 5.445312 -8.625 6.03125 -8.625 C 7.894531 -8.625 8.828125 -7.566406 8.828125 -5.453125 L 8.828125 0 L 6.703125 0 L 6.703125 -5.1875 C 6.703125 -5.757812 6.585938 -6.175781 6.359375 -6.4375 C 6.128906 -6.695312 5.769531 -6.828125 5.28125 -6.828125 C 4.6875 -6.828125 4.210938 -6.628906 3.859375 -6.234375 C 3.515625 -5.835938 3.34375 -5.21875 3.34375 -4.375 L 3.34375 0 Z M 1.21875 0 "/></g></g></g><g fill="#ffffff" fill-opacity="1"><g transform="translate(186.365694, 24.224444)"><g><path d="M 3.296875 0.15625 C 2.753906 0.15625 2.285156 0.0546875 1.890625 -0.140625 C 1.492188 -0.335938 1.1875 -0.628906 0.96875 -1.015625 C 0.75 -1.398438 0.640625 -1.863281 0.640625 -2.40625 C 0.640625 -2.90625 0.75 -3.328125 0.96875 -3.671875 C 1.1875 -4.015625 1.519531 -4.289062 1.96875 -4.5 C 2.414062 -4.71875 3.003906 -4.890625 3.734375 -5.015625 C 4.234375 -5.097656 4.613281 -5.1875 4.875 -5.28125 C 5.144531 -5.375 5.328125 -5.484375 5.421875 -5.609375 C 5.515625 -5.734375 5.5625 -5.890625 5.5625 -6.078125 C 5.5625 -6.347656 5.460938 -6.554688 5.265625 -6.703125 C 5.078125 -6.847656 4.765625 -6.921875 4.328125 -6.921875 C 3.859375 -6.921875 3.410156 -6.8125 2.984375 -6.59375 C 2.554688 -6.382812 2.1875 -6.109375 1.875 -5.765625 L 1.734375 -5.765625 L 0.84375 -7.109375 C 1.269531 -7.585938 1.789062 -7.957031 2.40625 -8.21875 C 3.03125 -8.488281 3.707031 -8.625 4.4375 -8.625 C 5.550781 -8.625 6.359375 -8.382812 6.859375 -7.90625 C 7.367188 -7.4375 7.625 -6.765625 7.625 -5.890625 L 7.625 -2.203125 C 7.625 -1.828125 7.789062 -1.640625 8.125 -1.640625 C 8.25 -1.640625 8.375 -1.664062 8.5 -1.71875 L 8.609375 -1.6875 L 8.75 -0.203125 C 8.632812 -0.117188 8.472656 -0.0507812 8.265625 0 C 8.054688 0.0390625 7.828125 0.0625 7.578125 0.0625 C 7.066406 0.0625 6.671875 -0.03125 6.390625 -0.21875 C 6.109375 -0.414062 5.90625 -0.722656 5.78125 -1.140625 L 5.625 -1.15625 C 5.207031 -0.28125 4.429688 0.15625 3.296875 0.15625 Z M 3.96875 -1.421875 C 4.46875 -1.421875 4.863281 -1.585938 5.15625 -1.921875 C 5.445312 -2.253906 5.59375 -2.710938 5.59375 -3.296875 L 5.59375 -4.15625 L 5.453125 -4.1875 C 5.316406 -4.082031 5.144531 -3.992188 4.9375 -3.921875 C 4.738281 -3.859375 4.441406 -3.796875 4.046875 -3.734375 C 3.585938 -3.648438 3.253906 -3.515625 3.046875 -3.328125 C 2.847656 -3.148438 2.75 -2.890625 2.75 -2.546875 C 2.75 -2.179688 2.859375 -1.898438 3.078125 -1.703125 C 3.296875 -1.515625 3.59375 -1.421875 3.96875 -1.421875 Z M 3.96875 -1.421875 "/></g></g></g><g fill="#ffffff" fill-opacity="1"><g transform="translate(195.287209, 24.224444)"><g><path d="M 1.21875 0 L 1.21875 -8.46875 L 3.265625 -8.46875 L 3.265625 -7.21875 L 3.421875 -7.1875 C 3.953125 -8.144531 4.804688 -8.625 5.984375 -8.625 C 6.960938 -8.625 7.679688 -8.359375 8.140625 -7.828125 C 8.597656 -7.296875 8.828125 -6.519531 8.828125 -5.5 L 8.828125 0 L 6.703125 0 L 6.703125 -5.234375 C 6.703125 -5.804688 6.585938 -6.210938 6.359375 -6.453125 C 6.140625 -6.703125 5.78125 -6.828125 5.28125 -6.828125 C 4.664062 -6.828125 4.1875 -6.628906 3.84375 -6.234375 C 3.507812 -5.847656 3.34375 -5.226562 3.34375 -4.375 L 3.34375 0 Z M 1.21875 0 "/></g></g></g><g fill="#ffffff" fill-opacity="1"><g transform="translate(205.198293, 24.224444)"><g><path d="M 5.84375 -2.015625 L 6.390625 -0.4375 C 6.160156 -0.25 5.867188 -0.101562 5.515625 0 C 5.171875 0.101562 4.78125 0.15625 4.34375 0.15625 C 3.425781 0.15625 2.726562 -0.0859375 2.25 -0.578125 C 1.78125 -1.078125 1.546875 -1.804688 1.546875 -2.765625 L 1.546875 -6.78125 L 0.25 -6.78125 L 0.25 -8.46875 L 1.546875 -8.46875 L 1.546875 -10.125 L 3.671875 -10.46875 L 3.671875 -8.46875 L 6.078125 -8.46875 L 6.078125 -6.78125 L 3.671875 -6.78125 L 3.671875 -2.921875 C 3.671875 -2.492188 3.753906 -2.1875 3.921875 -2 C 4.097656 -1.8125 4.351562 -1.71875 4.6875 -1.71875 C 5.0625 -1.71875 5.390625 -1.816406 5.671875 -2.015625 Z M 5.84375 -2.015625 "/></g></g></g><g fill="#ffffff" fill-opacity="1"><g transform="translate(211.772446, 24.224444)"><g><path d="M 3.5 0 L 1.453125 0 L 1.453125 -11.21875 L 4.359375 -11.21875 L 7.203125 -2.96875 L 7.359375 -2.96875 L 10.1875 -11.21875 L 13.015625 -11.21875 L 13.015625 0 L 10.921875 0 L 10.921875 -7.421875 L 10.71875 -7.4375 L 8.125 0 L 6.28125 0 L 3.6875 -7.4375 L 3.5 -7.421875 Z M 3.5 0 "/></g></g></g><g fill="#ffffff" fill-opacity="1"><g transform="translate(226.24785, 24.224444)"><g><path d="M 3.296875 0.15625 C 2.753906 0.15625 2.285156 0.0546875 1.890625 -0.140625 C 1.492188 -0.335938 1.1875 -0.628906 0.96875 -1.015625 C 0.75 -1.398438 0.640625 -1.863281 0.640625 -2.40625 C 0.640625 -2.90625 0.75 -3.328125 0.96875 -3.671875 C 1.1875 -4.015625 1.519531 -4.289062 1.96875 -4.5 C 2.414062 -4.71875 3.003906 -4.890625 3.734375 -5.015625 C 4.234375 -5.097656 4.613281 -5.1875 4.875 -5.28125 C 5.144531 -5.375 5.328125 -5.484375 5.421875 -5.609375 C 5.515625 -5.734375 5.5625 -5.890625 5.5625 -6.078125 C 5.5625 -6.347656 5.460938 -6.554688 5.265625 -6.703125 C 5.078125 -6.847656 4.765625 -6.921875 4.328125 -6.921875 C 3.859375 -6.921875 3.410156 -6.8125 2.984375 -6.59375 C 2.554688 -6.382812 2.1875 -6.109375 1.875 -5.765625 L 1.734375 -5.765625 L 0.84375 -7.109375 C 1.269531 -7.585938 1.789062 -7.957031 2.40625 -8.21875 C 3.03125 -8.488281 3.707031 -8.625 4.4375 -8.625 C 5.550781 -8.625 6.359375 -8.382812 6.859375 -7.90625 C 7.367188 -7.4375 7.625 -6.765625 7.625 -5.890625 L 7.625 -2.203125 C 7.625 -1.828125 7.789062 -1.640625 8.125 -1.640625 C 8.25 -1.640625 8.375 -1.664062 8.5 -1.71875 L 8.609375 -1.6875 L 8.75 -0.203125 C 8.632812 -0.117188 8.472656 -0.0507812 8.265625 0 C 8.054688 0.0390625 7.828125 0.0625 7.578125 0.0625 C 7.066406 0.0625 6.671875 -0.03125 6.390625 -0.21875 C 6.109375 -0.414062 5.90625 -0.722656 5.78125 -1.140625 L 5.625 -1.15625 C 5.207031 -0.28125 4.429688 0.15625 3.296875 0.15625 Z M 3.96875 -1.421875 C 4.46875 -1.421875 4.863281 -1.585938 5.15625 -1.921875 C 5.445312 -2.253906 5.59375 -2.710938 5.59375 -3.296875 L 5.59375 -4.15625 L 5.453125 -4.1875 C 5.316406 -4.082031 5.144531 -3.992188 4.9375 -3.921875 C 4.738281 -3.859375 4.441406 -3.796875 4.046875 -3.734375 C 3.585938 -3.648438 3.253906 -3.515625 3.046875 -3.328125 C 2.847656 -3.148438 2.75 -2.890625 2.75 -2.546875 C 2.75 -2.179688 2.859375 -1.898438 3.078125 -1.703125 C 3.296875 -1.515625 3.59375 -1.421875 3.96875 -1.421875 Z M 3.96875 -1.421875 "/></g></g></g><g fill="#ffffff" fill-opacity="1"><g transform="translate(235.169365, 24.224444)"><g><path d="M 5.84375 -2.015625 L 6.390625 -0.4375 C 6.160156 -0.25 5.867188 -0.101562 5.515625 0 C 5.171875 0.101562 4.78125 0.15625 4.34375 0.15625 C 3.425781 0.15625 2.726562 -0.0859375 2.25 -0.578125 C 1.78125 -1.078125 1.546875 -1.804688 1.546875 -2.765625 L 1.546875 -6.78125 L 0.25 -6.78125 L 0.25 -8.46875 L 1.546875 -8.46875 L 1.546875 -10.125 L 3.671875 -10.46875 L 3.671875 -8.46875 L 6.078125 -8.46875 L 6.078125 -6.78125 L 3.671875 -6.78125 L 3.671875 -2.921875 C 3.671875 -2.492188 3.753906 -2.1875 3.921875 -2 C 4.097656 -1.8125 4.351562 -1.71875 4.6875 -1.71875 C 5.0625 -1.71875 5.390625 -1.816406 5.671875 -2.015625 Z M 5.84375 -2.015625 "/></g></g></g><g fill="#ffffff" fill-opacity="1"><g transform="translate(241.743518, 24.224444)"><g><path d="M 8.359375 -3.75 L 2.921875 -3.75 C 2.984375 -3.007812 3.191406 -2.472656 3.546875 -2.140625 C 3.910156 -1.804688 4.398438 -1.640625 5.015625 -1.640625 C 5.503906 -1.640625 5.898438 -1.726562 6.203125 -1.90625 C 6.503906 -2.09375 6.75 -2.367188 6.9375 -2.734375 L 7.09375 -2.734375 L 8.5 -1.828125 C 8.226562 -1.234375 7.8125 -0.753906 7.25 -0.390625 C 6.695312 -0.0234375 5.953125 0.15625 5.015625 0.15625 C 4.140625 0.15625 3.382812 -0.0078125 2.75 -0.34375 C 2.113281 -0.675781 1.625 -1.171875 1.28125 -1.828125 C 0.9375 -2.484375 0.765625 -3.285156 0.765625 -4.234375 C 0.765625 -5.191406 0.941406 -6 1.296875 -6.65625 C 1.660156 -7.320312 2.148438 -7.816406 2.765625 -8.140625 C 3.390625 -8.460938 4.085938 -8.625 4.859375 -8.625 C 6.054688 -8.625 6.972656 -8.304688 7.609375 -7.671875 C 8.253906 -7.035156 8.578125 -6.101562 8.578125 -4.875 C 8.578125 -4.4375 8.5625 -4.09375 8.53125 -3.84375 Z M 6.546875 -5.125 C 6.523438 -5.769531 6.375 -6.238281 6.09375 -6.53125 C 5.8125 -6.832031 5.398438 -6.984375 4.859375 -6.984375 C 3.785156 -6.984375 3.15625 -6.363281 2.96875 -5.125 Z M 6.546875 -5.125 "/></g></g></g><g fill="#ffffff" fill-opacity="1"><g transform="translate(250.941194, 24.224444)"><g><path d="M 1.875 3.59375 C 1.507812 3.59375 1.175781 3.5625 0.875 3.5 C 0.582031 3.445312 0.347656 3.375 0.171875 3.28125 L 0.5 1.5625 L 0.640625 1.515625 C 0.773438 1.585938 0.9375 1.644531 1.125 1.6875 C 1.3125 1.726562 1.503906 1.75 1.703125 1.75 C 2.046875 1.75 2.332031 1.703125 2.5625 1.609375 C 2.789062 1.515625 2.984375 1.363281 3.140625 1.15625 C 3.296875 0.957031 3.4375 0.671875 3.5625 0.296875 L 0.1875 -8.46875 L 2.40625 -8.46875 L 4.515625 -2.578125 L 4.703125 -2.578125 L 6.75 -8.46875 L 8.90625 -8.46875 L 5.515625 0.53125 C 5.242188 1.257812 4.941406 1.84375 4.609375 2.28125 C 4.285156 2.726562 3.898438 3.054688 3.453125 3.265625 C 3.015625 3.484375 2.488281 3.59375 1.875 3.59375 Z M 1.875 3.59375 "/></g></g></g></svg>